<mxfile host="app.diagrams.net" modified="2021-04-25T04:42:26.604Z" agent="5.0 (Windows NT 10.0; Win64; x64) AppleWebKit/537.36 (KHTML, like Gecko) Chrome/90.0.4430.72 Safari/537.36" etag="b0YDvtiKTdPE9MfHlITe" version="14.6.6" type="github">
  <diagram id="Jh-E7pJtC7Co52apwj9m" name="Page-1">
    <mxGraphModel dx="599" dy="1140" grid="1" gridSize="10" guides="1" tooltips="1" connect="1" arrows="1" fold="1" page="1" pageScale="1" pageWidth="1169" pageHeight="827" math="0" shadow="0">
      <root>
        <mxCell id="0" />
        <mxCell id="1" parent="0" />
        <mxCell id="KL67bqmb1fmgFZtsdZCf-10" style="edgeStyle=none;rounded=0;orthogonalLoop=1;jettySize=auto;html=1;entryX=0;entryY=0.5;entryDx=0;entryDy=0;" edge="1" parent="1" target="KL67bqmb1fmgFZtsdZCf-2">
          <mxGeometry relative="1" as="geometry">
            <mxPoint x="240" y="20" as="sourcePoint" />
          </mxGeometry>
        </mxCell>
        <mxCell id="KL67bqmb1fmgFZtsdZCf-11" style="edgeStyle=none;rounded=0;orthogonalLoop=1;jettySize=auto;html=1;entryX=0;entryY=0.5;entryDx=0;entryDy=0;" edge="1" parent="1" target="KL67bqmb1fmgFZtsdZCf-4">
          <mxGeometry relative="1" as="geometry">
            <mxPoint x="250" y="47" as="sourcePoint" />
          </mxGeometry>
        </mxCell>
        <mxCell id="KL67bqmb1fmgFZtsdZCf-12" style="edgeStyle=none;rounded=0;orthogonalLoop=1;jettySize=auto;html=1;entryX=0;entryY=0.5;entryDx=0;entryDy=0;" edge="1" parent="1" target="KL67bqmb1fmgFZtsdZCf-5">
          <mxGeometry relative="1" as="geometry">
            <mxPoint x="240" y="70" as="sourcePoint" />
          </mxGeometry>
        </mxCell>
        <mxCell id="KL67bqmb1fmgFZtsdZCf-13" style="edgeStyle=none;rounded=0;orthogonalLoop=1;jettySize=auto;html=1;entryX=0;entryY=0.5;entryDx=0;entryDy=0;" edge="1" parent="1" target="KL67bqmb1fmgFZtsdZCf-3">
          <mxGeometry relative="1" as="geometry">
            <mxPoint x="250" y="120" as="sourcePoint" />
          </mxGeometry>
        </mxCell>
        <mxCell id="KL67bqmb1fmgFZtsdZCf-1" value="Jugador" style="shape=umlActor;verticalLabelPosition=bottom;verticalAlign=top;html=1;outlineConnect=0;" vertex="1" parent="1">
          <mxGeometry x="110" y="390" width="60" height="110" as="geometry" />
        </mxCell>
        <mxCell id="KL67bqmb1fmgFZtsdZCf-7" style="rounded=0;orthogonalLoop=1;jettySize=auto;html=1;exitX=1;exitY=0.5;exitDx=0;exitDy=0;entryX=0.5;entryY=0;entryDx=0;entryDy=0;dashed=1;endArrow=open;endFill=0;" edge="1" parent="1" source="KL67bqmb1fmgFZtsdZCf-2" target="KL67bqmb1fmgFZtsdZCf-6">
          <mxGeometry relative="1" as="geometry" />
        </mxCell>
        <mxCell id="KL67bqmb1fmgFZtsdZCf-108" value="&lt;span style=&quot;font-size: 12px ; background-color: rgb(248 , 249 , 250)&quot;&gt;&amp;lt;&amp;lt;Include&amp;gt;&amp;gt;&lt;/span&gt;" style="edgeLabel;html=1;align=center;verticalAlign=middle;resizable=0;points=[];" vertex="1" connectable="0" parent="KL67bqmb1fmgFZtsdZCf-7">
          <mxGeometry x="-0.1346" y="-1" relative="1" as="geometry">
            <mxPoint x="1" as="offset" />
          </mxGeometry>
        </mxCell>
        <mxCell id="KL67bqmb1fmgFZtsdZCf-2" value="Iniciar Partida" style="ellipse;whiteSpace=wrap;html=1;" vertex="1" parent="1">
          <mxGeometry x="370" y="-160" width="120" height="50" as="geometry" />
        </mxCell>
        <mxCell id="KL67bqmb1fmgFZtsdZCf-3" value="Finalizar Partida" style="ellipse;whiteSpace=wrap;html=1;" vertex="1" parent="1">
          <mxGeometry x="370" y="250" width="120" height="50" as="geometry" />
        </mxCell>
        <mxCell id="KL67bqmb1fmgFZtsdZCf-4" value="Ver InformaciÃ³n" style="ellipse;whiteSpace=wrap;html=1;" vertex="1" parent="1">
          <mxGeometry x="370" y="-90" width="120" height="50" as="geometry" />
        </mxCell>
        <mxCell id="KL67bqmb1fmgFZtsdZCf-9" style="edgeStyle=none;rounded=0;orthogonalLoop=1;jettySize=auto;html=1;exitX=1;exitY=0.5;exitDx=0;exitDy=0;entryX=0;entryY=0.5;entryDx=0;entryDy=0;dashed=1;endArrow=open;endFill=0;" edge="1" parent="1" source="KL67bqmb1fmgFZtsdZCf-5" target="KL67bqmb1fmgFZtsdZCf-6">
          <mxGeometry relative="1" as="geometry" />
        </mxCell>
        <mxCell id="KL67bqmb1fmgFZtsdZCf-106" value="&lt;span style=&quot;font-size: 12px ; background-color: rgb(248 , 249 , 250)&quot;&gt;&amp;lt;&amp;lt;Include&amp;gt;&amp;gt;&lt;/span&gt;" style="edgeLabel;html=1;align=center;verticalAlign=middle;resizable=0;points=[];" vertex="1" connectable="0" parent="KL67bqmb1fmgFZtsdZCf-9">
          <mxGeometry x="-0.1918" y="-1" relative="1" as="geometry">
            <mxPoint as="offset" />
          </mxGeometry>
        </mxCell>
        <mxCell id="KL67bqmb1fmgFZtsdZCf-5" value="Minar criptomonedas" style="ellipse;whiteSpace=wrap;html=1;" vertex="1" parent="1">
          <mxGeometry x="370" y="-10" width="120" height="50" as="geometry" />
        </mxCell>
        <mxCell id="KL67bqmb1fmgFZtsdZCf-6" value="Cargar Primer Nivel" style="ellipse;whiteSpace=wrap;html=1;" vertex="1" parent="1">
          <mxGeometry x="620" y="-60" width="120" height="50" as="geometry" />
        </mxCell>
        <mxCell id="KL67bqmb1fmgFZtsdZCf-14" style="edgeStyle=none;rounded=0;orthogonalLoop=1;jettySize=auto;html=1;entryX=0;entryY=0.5;entryDx=0;entryDy=0;" edge="1" parent="1" target="KL67bqmb1fmgFZtsdZCf-18">
          <mxGeometry relative="1" as="geometry">
            <mxPoint x="180" y="440" as="sourcePoint" />
          </mxGeometry>
        </mxCell>
        <mxCell id="KL67bqmb1fmgFZtsdZCf-18" value="Minar Criptomonedas" style="ellipse;whiteSpace=wrap;html=1;" vertex="1" parent="1">
          <mxGeometry x="300" y="414" width="120" height="50" as="geometry" />
        </mxCell>
        <mxCell id="KL67bqmb1fmgFZtsdZCf-28" style="edgeStyle=none;rounded=0;orthogonalLoop=1;jettySize=auto;html=1;entryX=0;entryY=0.5;entryDx=0;entryDy=0;dashed=1;endArrow=open;endFill=0;entryPerimeter=0;exitX=1.058;exitY=0.44;exitDx=0;exitDy=0;exitPerimeter=0;" edge="1" parent="1" source="KL67bqmb1fmgFZtsdZCf-21" target="KL67bqmb1fmgFZtsdZCf-19">
          <mxGeometry relative="1" as="geometry">
            <mxPoint x="610" y="630" as="sourcePoint" />
          </mxGeometry>
        </mxCell>
        <mxCell id="KL67bqmb1fmgFZtsdZCf-103" value="&lt;span style=&quot;font-size: 12px ; background-color: rgb(248 , 249 , 250)&quot;&gt;&amp;lt;&amp;lt;Include&amp;gt;&amp;gt;&lt;/span&gt;" style="edgeLabel;html=1;align=center;verticalAlign=middle;resizable=0;points=[];" vertex="1" connectable="0" parent="KL67bqmb1fmgFZtsdZCf-28">
          <mxGeometry x="-0.2209" relative="1" as="geometry">
            <mxPoint as="offset" />
          </mxGeometry>
        </mxCell>
        <mxCell id="KL67bqmb1fmgFZtsdZCf-30" style="edgeStyle=none;rounded=0;orthogonalLoop=1;jettySize=auto;html=1;exitX=0.5;exitY=1;exitDx=0;exitDy=0;entryX=0.5;entryY=0;entryDx=0;entryDy=0;dashed=1;endArrow=open;endFill=0;" edge="1" parent="1" source="KL67bqmb1fmgFZtsdZCf-19" target="KL67bqmb1fmgFZtsdZCf-23">
          <mxGeometry relative="1" as="geometry" />
        </mxCell>
        <mxCell id="KL67bqmb1fmgFZtsdZCf-104" value="&lt;span style=&quot;font-size: 12px ; background-color: rgb(248 , 249 , 250)&quot;&gt;&amp;lt;&amp;lt;Include&amp;gt;&amp;gt;&lt;/span&gt;" style="edgeLabel;html=1;align=center;verticalAlign=middle;resizable=0;points=[];" vertex="1" connectable="0" parent="KL67bqmb1fmgFZtsdZCf-30">
          <mxGeometry x="-0.3488" relative="1" as="geometry">
            <mxPoint as="offset" />
          </mxGeometry>
        </mxCell>
        <mxCell id="KL67bqmb1fmgFZtsdZCf-19" value="Monedas en Wallet" style="ellipse;whiteSpace=wrap;html=1;" vertex="1" parent="1">
          <mxGeometry x="660" y="464" width="120" height="50" as="geometry" />
        </mxCell>
        <mxCell id="KL67bqmb1fmgFZtsdZCf-26" style="edgeStyle=none;rounded=0;orthogonalLoop=1;jettySize=auto;html=1;exitX=1;exitY=1;exitDx=0;exitDy=0;dashed=1;endArrow=open;endFill=0;entryX=0;entryY=0;entryDx=0;entryDy=0;" edge="1" parent="1" source="KL67bqmb1fmgFZtsdZCf-18" target="KL67bqmb1fmgFZtsdZCf-21">
          <mxGeometry relative="1" as="geometry">
            <mxPoint x="480" y="460" as="targetPoint" />
          </mxGeometry>
        </mxCell>
        <mxCell id="KL67bqmb1fmgFZtsdZCf-102" value="&lt;span style=&quot;font-size: 12px ; background-color: rgb(248 , 249 , 250)&quot;&gt;&amp;lt;&amp;lt;Include&amp;gt;&amp;gt;&lt;/span&gt;" style="edgeLabel;html=1;align=center;verticalAlign=middle;resizable=0;points=[];" vertex="1" connectable="0" parent="KL67bqmb1fmgFZtsdZCf-26">
          <mxGeometry x="-0.4188" y="2" relative="1" as="geometry">
            <mxPoint as="offset" />
          </mxGeometry>
        </mxCell>
        <mxCell id="KL67bqmb1fmgFZtsdZCf-31" style="edgeStyle=none;rounded=0;orthogonalLoop=1;jettySize=auto;html=1;exitX=0;exitY=1;exitDx=0;exitDy=0;dashed=1;endArrow=open;endFill=0;entryX=0.5;entryY=0;entryDx=0;entryDy=0;" edge="1" parent="1" source="KL67bqmb1fmgFZtsdZCf-82" target="KL67bqmb1fmgFZtsdZCf-21">
          <mxGeometry relative="1" as="geometry">
            <mxPoint x="470" y="375" as="targetPoint" />
          </mxGeometry>
        </mxCell>
        <mxCell id="KL67bqmb1fmgFZtsdZCf-105" value="&lt;span style=&quot;font-size: 12px ; background-color: rgb(248 , 249 , 250)&quot;&gt;&amp;lt;&amp;lt;Extend&amp;gt;&amp;gt;&lt;/span&gt;" style="edgeLabel;html=1;align=center;verticalAlign=middle;resizable=0;points=[];" vertex="1" connectable="0" parent="KL67bqmb1fmgFZtsdZCf-31">
          <mxGeometry x="-0.12" y="4" relative="1" as="geometry">
            <mxPoint as="offset" />
          </mxGeometry>
        </mxCell>
        <mxCell id="KL67bqmb1fmgFZtsdZCf-21" value="Monedas Por Click" style="ellipse;whiteSpace=wrap;html=1;" vertex="1" parent="1">
          <mxGeometry x="440" y="520" width="120" height="50" as="geometry" />
        </mxCell>
        <mxCell id="KL67bqmb1fmgFZtsdZCf-129" style="edgeStyle=none;rounded=0;orthogonalLoop=1;jettySize=auto;html=1;entryX=0.042;entryY=0.32;entryDx=0;entryDy=0;entryPerimeter=0;endArrow=classic;endFill=1;" edge="1" parent="1" target="KL67bqmb1fmgFZtsdZCf-127">
          <mxGeometry relative="1" as="geometry">
            <mxPoint x="240" y="90" as="sourcePoint" />
          </mxGeometry>
        </mxCell>
        <mxCell id="KL67bqmb1fmgFZtsdZCf-131" style="edgeStyle=none;rounded=0;orthogonalLoop=1;jettySize=auto;html=1;entryX=0;entryY=0.5;entryDx=0;entryDy=0;endArrow=classic;endFill=1;" edge="1" parent="1" target="KL67bqmb1fmgFZtsdZCf-130">
          <mxGeometry relative="1" as="geometry">
            <mxPoint x="250" y="110" as="sourcePoint" />
          </mxGeometry>
        </mxCell>
        <mxCell id="KL67bqmb1fmgFZtsdZCf-22" value="Jugador" style="shape=umlActor;verticalLabelPosition=bottom;verticalAlign=top;html=1;outlineConnect=0;" vertex="1" parent="1">
          <mxGeometry x="190" y="20" width="60" height="110" as="geometry" />
        </mxCell>
        <mxCell id="KL67bqmb1fmgFZtsdZCf-23" value="EstadÃ­sticas" style="ellipse;whiteSpace=wrap;html=1;" vertex="1" parent="1">
          <mxGeometry x="660" y="600" width="120" height="50" as="geometry" />
        </mxCell>
        <mxCell id="KL67bqmb1fmgFZtsdZCf-50" value="Jugador" style="shape=umlActor;verticalLabelPosition=bottom;verticalAlign=top;html=1;outlineConnect=0;" vertex="1" parent="1">
          <mxGeometry x="110" y="820" width="60" height="110" as="geometry" />
        </mxCell>
        <mxCell id="KL67bqmb1fmgFZtsdZCf-51" style="edgeStyle=none;rounded=0;orthogonalLoop=1;jettySize=auto;html=1;entryX=0;entryY=0.5;entryDx=0;entryDy=0;" edge="1" parent="1" target="KL67bqmb1fmgFZtsdZCf-52">
          <mxGeometry relative="1" as="geometry">
            <mxPoint x="180" y="870" as="sourcePoint" />
          </mxGeometry>
        </mxCell>
        <mxCell id="KL67bqmb1fmgFZtsdZCf-68" style="edgeStyle=none;rounded=0;orthogonalLoop=1;jettySize=auto;html=1;exitX=1;exitY=0.5;exitDx=0;exitDy=0;entryX=0;entryY=0.5;entryDx=0;entryDy=0;dashed=1;endArrow=open;endFill=0;" edge="1" parent="1" source="KL67bqmb1fmgFZtsdZCf-52" target="KL67bqmb1fmgFZtsdZCf-60">
          <mxGeometry relative="1" as="geometry" />
        </mxCell>
        <mxCell id="KL67bqmb1fmgFZtsdZCf-100" value="&lt;span style=&quot;font-size: 12px ; background-color: rgb(248 , 249 , 250)&quot;&gt;&amp;lt;&amp;lt;Include&amp;gt;&amp;gt;&lt;/span&gt;" style="edgeLabel;html=1;align=center;verticalAlign=middle;resizable=0;points=[];" vertex="1" connectable="0" parent="KL67bqmb1fmgFZtsdZCf-68">
          <mxGeometry x="-0.3032" y="1" relative="1" as="geometry">
            <mxPoint as="offset" />
          </mxGeometry>
        </mxCell>
        <mxCell id="KL67bqmb1fmgFZtsdZCf-74" style="edgeStyle=none;rounded=0;orthogonalLoop=1;jettySize=auto;html=1;exitX=1;exitY=0;exitDx=0;exitDy=0;entryX=0;entryY=0.5;entryDx=0;entryDy=0;dashed=1;endArrow=open;endFill=0;" edge="1" parent="1" source="KL67bqmb1fmgFZtsdZCf-52" target="KL67bqmb1fmgFZtsdZCf-73">
          <mxGeometry relative="1" as="geometry" />
        </mxCell>
        <mxCell id="KL67bqmb1fmgFZtsdZCf-98" value="&lt;span style=&quot;font-size: 12px ; background-color: rgb(248 , 249 , 250)&quot;&gt;&amp;lt;&amp;lt;Include&amp;gt;&amp;gt;&lt;/span&gt;" style="edgeLabel;html=1;align=center;verticalAlign=middle;resizable=0;points=[];" vertex="1" connectable="0" parent="KL67bqmb1fmgFZtsdZCf-74">
          <mxGeometry x="-0.1058" y="-1" relative="1" as="geometry">
            <mxPoint as="offset" />
          </mxGeometry>
        </mxCell>
        <mxCell id="KL67bqmb1fmgFZtsdZCf-52" value="Mejoras" style="ellipse;whiteSpace=wrap;html=1;" vertex="1" parent="1">
          <mxGeometry x="300" y="844" width="120" height="50" as="geometry" />
        </mxCell>
        <mxCell id="KL67bqmb1fmgFZtsdZCf-56" style="edgeStyle=none;rounded=0;orthogonalLoop=1;jettySize=auto;html=1;exitX=0.5;exitY=0;exitDx=0;exitDy=0;dashed=1;endArrow=open;endFill=0;entryX=0;entryY=1;entryDx=0;entryDy=0;" edge="1" parent="1" source="KL67bqmb1fmgFZtsdZCf-52" target="KL67bqmb1fmgFZtsdZCf-58">
          <mxGeometry relative="1" as="geometry">
            <mxPoint x="360" y="720" as="targetPoint" />
          </mxGeometry>
        </mxCell>
        <mxCell id="KL67bqmb1fmgFZtsdZCf-99" value="&lt;span style=&quot;font-size: 12px ; background-color: rgb(248 , 249 , 250)&quot;&gt;&amp;lt;&amp;lt;Include&amp;gt;&amp;gt;&lt;/span&gt;" style="edgeLabel;html=1;align=center;verticalAlign=middle;resizable=0;points=[];" vertex="1" connectable="0" parent="KL67bqmb1fmgFZtsdZCf-56">
          <mxGeometry x="0.07" y="-4" relative="1" as="geometry">
            <mxPoint as="offset" />
          </mxGeometry>
        </mxCell>
        <mxCell id="KL67bqmb1fmgFZtsdZCf-58" value="Monedas Por Click" style="ellipse;whiteSpace=wrap;html=1;" vertex="1" parent="1">
          <mxGeometry x="570" y="720" width="120" height="50" as="geometry" />
        </mxCell>
        <mxCell id="KL67bqmb1fmgFZtsdZCf-70" style="edgeStyle=none;rounded=0;orthogonalLoop=1;jettySize=auto;html=1;exitX=0.5;exitY=1;exitDx=0;exitDy=0;dashed=1;endArrow=open;endFill=0;" edge="1" parent="1" source="KL67bqmb1fmgFZtsdZCf-60" target="KL67bqmb1fmgFZtsdZCf-69">
          <mxGeometry relative="1" as="geometry" />
        </mxCell>
        <mxCell id="KL67bqmb1fmgFZtsdZCf-101" value="&lt;span style=&quot;font-size: 12px ; background-color: rgb(248 , 249 , 250)&quot;&gt;&amp;lt;&amp;lt;Include&amp;gt;&amp;gt;&lt;/span&gt;" style="edgeLabel;html=1;align=center;verticalAlign=middle;resizable=0;points=[];" vertex="1" connectable="0" parent="KL67bqmb1fmgFZtsdZCf-70">
          <mxGeometry x="-0.2558" y="-1" relative="1" as="geometry">
            <mxPoint as="offset" />
          </mxGeometry>
        </mxCell>
        <mxCell id="KL67bqmb1fmgFZtsdZCf-60" value="Monedas en Wallet" style="ellipse;whiteSpace=wrap;html=1;" vertex="1" parent="1">
          <mxGeometry x="730" y="844" width="120" height="50" as="geometry" />
        </mxCell>
        <mxCell id="KL67bqmb1fmgFZtsdZCf-69" value="EstadÃ­sticas" style="ellipse;whiteSpace=wrap;html=1;" vertex="1" parent="1">
          <mxGeometry x="730" y="980" width="120" height="50" as="geometry" />
        </mxCell>
        <mxCell id="KL67bqmb1fmgFZtsdZCf-73" value="Minado pasivo" style="ellipse;whiteSpace=wrap;html=1;" vertex="1" parent="1">
          <mxGeometry x="750" y="750" width="120" height="50" as="geometry" />
        </mxCell>
        <mxCell id="KL67bqmb1fmgFZtsdZCf-79" value="" style="shape=ellipse;container=1;horizontal=1;horizontalStack=0;resizeParent=1;resizeParentMax=0;resizeLast=0;html=1;dashed=0;collapsible=0;" vertex="1" parent="1">
          <mxGeometry x="670" y="310" width="180" height="120" as="geometry" />
        </mxCell>
        <mxCell id="KL67bqmb1fmgFZtsdZCf-80" value="Mejoras" style="html=1;strokeColor=none;fillColor=none;align=center;verticalAlign=middle;rotatable=0;" vertex="1" parent="KL67bqmb1fmgFZtsdZCf-79">
          <mxGeometry width="180" height="30" as="geometry" />
        </mxCell>
        <mxCell id="KL67bqmb1fmgFZtsdZCf-81" value="" style="line;strokeWidth=1;fillColor=none;rotatable=0;labelPosition=right;points=[];portConstraint=eastwest;dashed=0;resizeWidth=1;" vertex="1" parent="KL67bqmb1fmgFZtsdZCf-79">
          <mxGeometry x="9" y="30" width="162" height="10" as="geometry" />
        </mxCell>
        <mxCell id="KL67bqmb1fmgFZtsdZCf-82" value="extension points" style="text;html=1;align=center;verticalAlign=middle;rotatable=0;fontStyle=1" vertex="1" parent="KL67bqmb1fmgFZtsdZCf-79">
          <mxGeometry y="40" width="180" height="30" as="geometry" />
        </mxCell>
        <mxCell id="KL67bqmb1fmgFZtsdZCf-83" value="Monedas por Click" style="text;html=1;align=left;verticalAlign=middle;rotatable=0;spacingLeft=25;" vertex="1" parent="KL67bqmb1fmgFZtsdZCf-79">
          <mxGeometry y="70" width="180" height="30" as="geometry" />
        </mxCell>
        <mxCell id="KL67bqmb1fmgFZtsdZCf-96" style="edgeStyle=none;rounded=0;orthogonalLoop=1;jettySize=auto;html=1;exitX=0.5;exitY=0;exitDx=0;exitDy=0;entryX=0.5;entryY=1;entryDx=0;entryDy=0;dashed=1;endArrow=open;endFill=0;" edge="1" parent="1" source="KL67bqmb1fmgFZtsdZCf-95" target="KL67bqmb1fmgFZtsdZCf-58">
          <mxGeometry relative="1" as="geometry" />
        </mxCell>
        <mxCell id="KL67bqmb1fmgFZtsdZCf-97" value="&amp;lt;&amp;lt;extend&amp;gt;&amp;gt;" style="edgeLabel;html=1;align=center;verticalAlign=middle;resizable=0;points=[];" vertex="1" connectable="0" parent="KL67bqmb1fmgFZtsdZCf-96">
          <mxGeometry x="-0.3009" y="3" relative="1" as="geometry">
            <mxPoint x="1" as="offset" />
          </mxGeometry>
        </mxCell>
        <mxCell id="KL67bqmb1fmgFZtsdZCf-95" value="Incremento Nivel" style="ellipse;whiteSpace=wrap;html=1;" vertex="1" parent="1">
          <mxGeometry x="520" y="980" width="120" height="50" as="geometry" />
        </mxCell>
        <mxCell id="KL67bqmb1fmgFZtsdZCf-109" value="Jugador" style="shape=umlActor;verticalLabelPosition=bottom;verticalAlign=top;html=1;outlineConnect=0;" vertex="1" parent="1">
          <mxGeometry x="110" y="1210" width="60" height="110" as="geometry" />
        </mxCell>
        <mxCell id="KL67bqmb1fmgFZtsdZCf-110" style="edgeStyle=none;rounded=0;orthogonalLoop=1;jettySize=auto;html=1;entryX=0;entryY=0.5;entryDx=0;entryDy=0;" edge="1" parent="1" target="KL67bqmb1fmgFZtsdZCf-115">
          <mxGeometry relative="1" as="geometry">
            <mxPoint x="180" y="1260" as="sourcePoint" />
          </mxGeometry>
        </mxCell>
        <mxCell id="KL67bqmb1fmgFZtsdZCf-115" value="Repeler Hackers" style="ellipse;whiteSpace=wrap;html=1;" vertex="1" parent="1">
          <mxGeometry x="300" y="1234" width="120" height="50" as="geometry" />
        </mxCell>
        <mxCell id="KL67bqmb1fmgFZtsdZCf-127" value="Repeler Hackers" style="ellipse;whiteSpace=wrap;html=1;" vertex="1" parent="1">
          <mxGeometry x="370" y="74" width="120" height="50" as="geometry" />
        </mxCell>
        <mxCell id="KL67bqmb1fmgFZtsdZCf-130" value="Esquivar Impuestos" style="ellipse;whiteSpace=wrap;html=1;" vertex="1" parent="1">
          <mxGeometry x="370" y="150" width="120" height="50" as="geometry" />
        </mxCell>
        <mxCell id="KL67bqmb1fmgFZtsdZCf-133" style="edgeStyle=none;rounded=0;orthogonalLoop=1;jettySize=auto;html=1;exitX=1;exitY=0;exitDx=0;exitDy=0;endArrow=open;endFill=0;dashed=1;entryX=0;entryY=0.5;entryDx=0;entryDy=0;" edge="1" parent="1" source="KL67bqmb1fmgFZtsdZCf-115" target="KL67bqmb1fmgFZtsdZCf-132">
          <mxGeometry relative="1" as="geometry">
            <mxPoint x="520" y="1220" as="targetPoint" />
          </mxGeometry>
        </mxCell>
        <mxCell id="KL67bqmb1fmgFZtsdZCf-134" value="&amp;lt;&amp;lt;Include&amp;gt;&amp;gt;" style="edgeLabel;html=1;align=center;verticalAlign=middle;resizable=0;points=[];" vertex="1" connectable="0" parent="KL67bqmb1fmgFZtsdZCf-133">
          <mxGeometry x="-0.177" y="-2" relative="1" as="geometry">
            <mxPoint as="offset" />
          </mxGeometry>
        </mxCell>
        <mxCell id="KL67bqmb1fmgFZtsdZCf-136" style="edgeStyle=none;rounded=0;orthogonalLoop=1;jettySize=auto;html=1;exitX=0.5;exitY=1;exitDx=0;exitDy=0;entryX=0.5;entryY=0;entryDx=0;entryDy=0;endArrow=open;endFill=0;dashed=1;" edge="1" parent="1" source="KL67bqmb1fmgFZtsdZCf-132" target="KL67bqmb1fmgFZtsdZCf-135">
          <mxGeometry relative="1" as="geometry" />
        </mxCell>
        <mxCell id="KL67bqmb1fmgFZtsdZCf-141" value="&amp;lt;&amp;lt;Include&amp;gt;&amp;gt;" style="edgeLabel;html=1;align=center;verticalAlign=middle;resizable=0;points=[];" vertex="1" connectable="0" parent="KL67bqmb1fmgFZtsdZCf-136">
          <mxGeometry x="-0.1863" y="2" relative="1" as="geometry">
            <mxPoint as="offset" />
          </mxGeometry>
        </mxCell>
        <mxCell id="KL67bqmb1fmgFZtsdZCf-132" value="Clickear Hacker" style="ellipse;whiteSpace=wrap;html=1;" vertex="1" parent="1">
          <mxGeometry x="510" y="1110" width="120" height="50" as="geometry" />
        </mxCell>
        <mxCell id="KL67bqmb1fmgFZtsdZCf-135" value="Retroceder Hacker" style="ellipse;whiteSpace=wrap;html=1;" vertex="1" parent="1">
          <mxGeometry x="560" y="1270" width="120" height="50" as="geometry" />
        </mxCell>
        <mxCell id="KL67bqmb1fmgFZtsdZCf-139" style="edgeStyle=none;rounded=0;orthogonalLoop=1;jettySize=auto;html=1;exitX=0;exitY=0.5;exitDx=0;exitDy=0;entryX=1;entryY=0.5;entryDx=0;entryDy=0;dashed=1;endArrow=open;endFill=0;" edge="1" parent="1" target="KL67bqmb1fmgFZtsdZCf-132">
          <mxGeometry relative="1" as="geometry">
            <mxPoint x="820" y="1155" as="sourcePoint" />
          </mxGeometry>
        </mxCell>
        <mxCell id="KL67bqmb1fmgFZtsdZCf-140" value="&amp;lt;&amp;lt;Extend&amp;gt;&amp;gt;" style="edgeLabel;html=1;align=center;verticalAlign=middle;resizable=0;points=[];" vertex="1" connectable="0" parent="KL67bqmb1fmgFZtsdZCf-139">
          <mxGeometry x="-0.1697" y="2" relative="1" as="geometry">
            <mxPoint as="offset" />
          </mxGeometry>
        </mxCell>
        <mxCell id="KL67bqmb1fmgFZtsdZCf-142" value="" style="shape=ellipse;container=1;horizontal=1;horizontalStack=0;resizeParent=1;resizeParentMax=0;resizeLast=0;html=1;dashed=0;collapsible=0;" vertex="1" parent="1">
          <mxGeometry x="820" y="1090" width="180" height="120" as="geometry" />
        </mxCell>
        <mxCell id="KL67bqmb1fmgFZtsdZCf-143" value="Mejoras" style="html=1;strokeColor=none;fillColor=none;align=center;verticalAlign=middle;rotatable=0;" vertex="1" parent="KL67bqmb1fmgFZtsdZCf-142">
          <mxGeometry width="180" height="30" as="geometry" />
        </mxCell>
        <mxCell id="KL67bqmb1fmgFZtsdZCf-144" value="" style="line;strokeWidth=1;fillColor=none;rotatable=0;labelPosition=right;points=[];portConstraint=eastwest;dashed=0;resizeWidth=1;" vertex="1" parent="KL67bqmb1fmgFZtsdZCf-142">
          <mxGeometry x="9" y="30" width="162" height="10" as="geometry" />
        </mxCell>
        <mxCell id="KL67bqmb1fmgFZtsdZCf-145" value="extension points" style="text;html=1;align=center;verticalAlign=middle;rotatable=0;fontStyle=1" vertex="1" parent="KL67bqmb1fmgFZtsdZCf-142">
          <mxGeometry y="40" width="180" height="30" as="geometry" />
        </mxCell>
        <mxCell id="KL67bqmb1fmgFZtsdZCf-146" value="Pocos Clicks" style="text;html=1;align=left;verticalAlign=middle;rotatable=0;spacingLeft=25;" vertex="1" parent="KL67bqmb1fmgFZtsdZCf-142">
          <mxGeometry y="70" width="180" height="30" as="geometry" />
        </mxCell>
        <mxCell id="KL67bqmb1fmgFZtsdZCf-147" value="Jugador" style="shape=umlActor;verticalLabelPosition=bottom;verticalAlign=top;html=1;outlineConnect=0;" vertex="1" parent="1">
          <mxGeometry x="110" y="1510" width="60" height="110" as="geometry" />
        </mxCell>
        <mxCell id="KL67bqmb1fmgFZtsdZCf-148" style="edgeStyle=none;rounded=0;orthogonalLoop=1;jettySize=auto;html=1;entryX=0;entryY=0.5;entryDx=0;entryDy=0;" edge="1" parent="1" target="KL67bqmb1fmgFZtsdZCf-149">
          <mxGeometry relative="1" as="geometry">
            <mxPoint x="180" y="1560" as="sourcePoint" />
          </mxGeometry>
        </mxCell>
        <mxCell id="KL67bqmb1fmgFZtsdZCf-149" value="Esquivar Impuestos" style="ellipse;whiteSpace=wrap;html=1;" vertex="1" parent="1">
          <mxGeometry x="300" y="1534" width="120" height="50" as="geometry" />
        </mxCell>
        <mxCell id="KL67bqmb1fmgFZtsdZCf-150" style="edgeStyle=none;rounded=0;orthogonalLoop=1;jettySize=auto;html=1;exitX=1;exitY=0;exitDx=0;exitDy=0;endArrow=open;endFill=0;dashed=1;entryX=0;entryY=0.5;entryDx=0;entryDy=0;" edge="1" parent="1" source="KL67bqmb1fmgFZtsdZCf-149" target="KL67bqmb1fmgFZtsdZCf-154">
          <mxGeometry relative="1" as="geometry">
            <mxPoint x="520" y="1520" as="targetPoint" />
          </mxGeometry>
        </mxCell>
        <mxCell id="KL67bqmb1fmgFZtsdZCf-151" value="&amp;lt;&amp;lt;Include&amp;gt;&amp;gt;" style="edgeLabel;html=1;align=center;verticalAlign=middle;resizable=0;points=[];" vertex="1" connectable="0" parent="KL67bqmb1fmgFZtsdZCf-150">
          <mxGeometry x="-0.177" y="-2" relative="1" as="geometry">
            <mxPoint as="offset" />
          </mxGeometry>
        </mxCell>
        <mxCell id="KL67bqmb1fmgFZtsdZCf-152" style="edgeStyle=none;rounded=0;orthogonalLoop=1;jettySize=auto;html=1;exitX=0.5;exitY=1;exitDx=0;exitDy=0;entryX=0.5;entryY=0;entryDx=0;entryDy=0;endArrow=open;endFill=0;dashed=1;" edge="1" parent="1" source="KL67bqmb1fmgFZtsdZCf-154" target="KL67bqmb1fmgFZtsdZCf-155">
          <mxGeometry relative="1" as="geometry" />
        </mxCell>
        <mxCell id="KL67bqmb1fmgFZtsdZCf-153" value="&amp;lt;&amp;lt;Include&amp;gt;&amp;gt;" style="edgeLabel;html=1;align=center;verticalAlign=middle;resizable=0;points=[];" vertex="1" connectable="0" parent="KL67bqmb1fmgFZtsdZCf-152">
          <mxGeometry x="-0.1863" y="2" relative="1" as="geometry">
            <mxPoint as="offset" />
          </mxGeometry>
        </mxCell>
        <mxCell id="KL67bqmb1fmgFZtsdZCf-154" value="Clickear Hacker" style="ellipse;whiteSpace=wrap;html=1;" vertex="1" parent="1">
          <mxGeometry x="510" y="1410" width="120" height="50" as="geometry" />
        </mxCell>
        <mxCell id="KL67bqmb1fmgFZtsdZCf-155" value="Retroceder Hacker" style="ellipse;whiteSpace=wrap;html=1;" vertex="1" parent="1">
          <mxGeometry x="560" y="1570" width="120" height="50" as="geometry" />
        </mxCell>
        <mxCell id="KL67bqmb1fmgFZtsdZCf-156" style="edgeStyle=none;rounded=0;orthogonalLoop=1;jettySize=auto;html=1;exitX=0;exitY=0.5;exitDx=0;exitDy=0;entryX=1;entryY=0.5;entryDx=0;entryDy=0;dashed=1;endArrow=open;endFill=0;" edge="1" parent="1" target="KL67bqmb1fmgFZtsdZCf-154">
          <mxGeometry relative="1" as="geometry">
            <mxPoint x="820" y="1455" as="sourcePoint" />
          </mxGeometry>
        </mxCell>
        <mxCell id="KL67bqmb1fmgFZtsdZCf-157" value="&amp;lt;&amp;lt;Extend&amp;gt;&amp;gt;" style="edgeLabel;html=1;align=center;verticalAlign=middle;resizable=0;points=[];" vertex="1" connectable="0" parent="KL67bqmb1fmgFZtsdZCf-156">
          <mxGeometry x="-0.1697" y="2" relative="1" as="geometry">
            <mxPoint as="offset" />
          </mxGeometry>
        </mxCell>
        <mxCell id="KL67bqmb1fmgFZtsdZCf-158" value="" style="shape=ellipse;container=1;horizontal=1;horizontalStack=0;resizeParent=1;resizeParentMax=0;resizeLast=0;html=1;dashed=0;collapsible=0;" vertex="1" parent="1">
          <mxGeometry x="820" y="1390" width="180" height="120" as="geometry" />
        </mxCell>
        <mxCell id="KL67bqmb1fmgFZtsdZCf-159" value="Mejoras" style="html=1;strokeColor=none;fillColor=none;align=center;verticalAlign=middle;rotatable=0;" vertex="1" parent="KL67bqmb1fmgFZtsdZCf-158">
          <mxGeometry width="180" height="30" as="geometry" />
        </mxCell>
        <mxCell id="KL67bqmb1fmgFZtsdZCf-160" value="" style="line;strokeWidth=1;fillColor=none;rotatable=0;labelPosition=right;points=[];portConstraint=eastwest;dashed=0;resizeWidth=1;" vertex="1" parent="KL67bqmb1fmgFZtsdZCf-158">
          <mxGeometry x="9" y="30" width="162" height="10" as="geometry" />
        </mxCell>
        <mxCell id="KL67bqmb1fmgFZtsdZCf-161" value="extension points" style="text;html=1;align=center;verticalAlign=middle;rotatable=0;fontStyle=1" vertex="1" parent="KL67bqmb1fmgFZtsdZCf-158">
          <mxGeometry y="40" width="180" height="30" as="geometry" />
        </mxCell>
        <mxCell id="KL67bqmb1fmgFZtsdZCf-162" value="Pocos Clicks" style="text;html=1;align=left;verticalAlign=middle;rotatable=0;spacingLeft=25;" vertex="1" parent="KL67bqmb1fmgFZtsdZCf-158">
          <mxGeometry y="70" width="180" height="30" as="geometry" />
        </mxCell>
      </root>
    </mxGraphModel>
  </diagram>
</mxfile>
